<?xml version="1.0" encoding="UTF-8"?>
<svg width="341px" height="82px" viewBox="0 0 341 82" version="1.1" xmlns="http://www.w3.org/2000/svg" xmlns:xlink="http://www.w3.org/1999/xlink">
    <!-- Generator: Sketch 52.1 (67048) - http://www.bohemiancoding.com/sketch -->
    <title>speech bubble</title>
    <desc>Created with Sketch.</desc>
    <g id="Page-1" stroke="none" stroke-width="1" fill="none" fill-rule="evenodd">
        <g id="Desktop-HD" transform="translate(-318.000000, -471.000000)" fill="#FFE846">
            <g id="speech-bubble" transform="translate(318.000000, 471.000000)">
                <path d="M-2.45984846e-14,30.5 C-2.45984846e-14,3.50318018 21.7737174,0 47.6962507,0 L303.528138,0 C329.450671,0 341,13.6553151 341,30.5 C341,47.3446849 329.450671,61 303.528138,61 L51.3347884,61 L47.6962507,61 C15.8987502,58.6645465 -1.84378315e-14,48.4978799 -2.45984846e-14,30.5 Z" id="Rectangle-4"></path>
                <path d="M3.05747835,17.2577805 C1.37537221,22.481281 1.37537221,27.1542741 3.05747835,31.2767596 C5.58063757,37.4604878 9.64232041,41.1008256 14.6318735,45.1397534 C19.6214266,49.1786812 16.7047938,50.9505864 14.2387893,58.5068157 C12.5947863,63.5443018 9.36532804,71.3753633 4.55041444,82 C19.2849387,79.875474 29.2429183,77.1693353 34.4243532,73.8815839 C39.6057881,70.5938325 45.464337,65.7561649 52,59.3685811 L3.05747835,17.2577805 Z" id="Path-2"></path>
            </g>
        </g>
    </g>
</svg>